<?xml version="1.0" encoding="UTF-8" standalone="no"?>
<!-- Generator: Adobe Illustrator 19.0.0, SVG Export Plug-In . SVG Version: 6.00 Build 0)  -->

<svg
   xmlns:dc="http://purl.org/dc/elements/1.1/"
   xmlns:cc="http://creativecommons.org/ns#"
   xmlns:rdf="http://www.w3.org/1999/02/22-rdf-syntax-ns#"
   xmlns:svg="http://www.w3.org/2000/svg"
   xmlns="http://www.w3.org/2000/svg"
   xmlns:sodipodi="http://sodipodi.sourceforge.net/DTD/sodipodi-0.dtd"
   xmlns:inkscape="http://www.inkscape.org/namespaces/inkscape"
   version="1.1"
   id="Capa_1"
   x="0px"
   y="0px"
   viewBox="0 0 250 250"
   xml:space="preserve"
   sodipodi:docname="support.svg"
   inkscape:version="0.92.0 r15299"
   width="250"
   height="250"><metadata
     id="metadata83"><rdf:RDF><cc:Work
         rdf:about=""><dc:format>image/svg+xml</dc:format><dc:type
           rdf:resource="http://purl.org/dc/dcmitype/StillImage" /><dc:title /></cc:Work></rdf:RDF></metadata><defs
     id="defs81" /><sodipodi:namedview
     pagecolor="#ffffff"
     bordercolor="#666666"
     borderopacity="1"
     objecttolerance="10"
     gridtolerance="10"
     guidetolerance="10"
     inkscape:pageopacity="0"
     inkscape:pageshadow="2"
     inkscape:window-width="1920"
     inkscape:window-height="1017"
     id="namedview79"
     showgrid="false"
     inkscape:zoom="1.3037281"
     inkscape:cx="17.393161"
     inkscape:cy="168.05467"
     inkscape:window-x="-8"
     inkscape:window-y="-8"
     inkscape:window-maximized="1"
     inkscape:current-layer="Capa_1" /><path
     style="fill:#f0e4d6;stroke-width:0.50869882"
     d="M 225.01212,9.9054729 H 167.6243 c -9.75176,0 -17.65796,7.9061981 -17.65796,17.6579601 V 71.70831 c 0,9.751761 7.9062,17.657961 17.65796,17.657961 h 13.24346 V 111.4387 L 202.9402,89.366271 h 22.07244 c 9.75174,0 17.65794,-7.9062 17.65794,-17.657961 V 27.563433 c -5e-4,-9.751762 -7.9067,-17.6579601 -17.65846,-17.6579601 z"
     id="path2-7"
     inkscape:connector-curvature="0" /><path
     style="fill:#ebdcca;stroke-width:0.50869882"
     d="m 234.03542,12.457104 c -18.21853,43.429659 -54.05076,63.577187 -77.96826,72.494676 3.18701,2.829889 7.29728,4.401255 11.55714,4.414491 h 13.24346 V 111.4387 L 202.9402,89.366271 h 22.07244 c 9.75174,0 17.65794,-7.9062 17.65794,-17.657961 V 27.563433 c -0.0138,-6.206644 -3.29382,-11.945783 -8.63516,-15.106329 z"
     id="path4-2"
     inkscape:connector-curvature="0" /><path
     style="fill:#ff5a59;stroke-width:0.54081887"
     d="M 23.486639,322.97602 H 186.13575 l -2.74141,-19.78044 -11.20468,-80.86109 -1.27471,-9.21555 C 168.7495,197.48765 155.38479,185.84545 139.60424,185.84545 H 70.017617 c -15.780559,0 -29.145281,11.6422 -31.310715,27.27349 l -1.274705,9.21555 -11.204693,80.86109 z"
     id="path2"
     inkscape:connector-curvature="0" /><path
     style="fill:#9178b7;fill-opacity:1;stroke-width:0.46266809"
     d="m 42.675013,326.89323 122.868757,0.64821 -2.16561,-43.17409 -6.47449,-54.82038 -1.00697,-8.53789 c -1.71062,-14.48185 -12.26822,-25.26795 -24.73425,-25.26795 H 76.191646 c -12.466045,0 -23.023658,10.7861 -24.734274,25.26795 l -1.006965,8.53789 -6.474496,65.19179 z"
     id="path2-8"
     inkscape:connector-curvature="0"
     sodipodi:nodetypes="cccccsscccc" /><path
     style="fill:#ff5a59;stroke-width:0.54081887"
     d="m 150.72077,200.04951 -8.80075,10.9981 c -1.87664,2.34552 -4.7181,3.71055 -7.7218,3.71055 H 104.81119 75.424182 c -3.003714,0 -5.845175,-1.36557 -7.721824,-3.71055 l -8.800741,-10.9981 v -5.06638 h 91.819153 z"
     id="path12"
     inkscape:connector-curvature="0" /><path
     style="fill:#f7c097;fill-opacity:1;stroke-width:0.54081887"
     d="m 121.44786,169.12712 v 32.50699 c 0,9.18798 -7.44869,16.63668 -16.63667,16.63668 v 0 c -9.187971,0 -16.636667,-7.4487 -16.636667,-16.63668 v -32.50699 z"
     id="path14"
     inkscape:connector-curvature="0" /><path
     style="fill:#f9dc6a;stroke-width:0.54081887"
     d="M 160.72376,82.932489 V 133.20646 H 48.898629 V 78.530764 c 0,-11.061369 8.967315,-20.028686 20.028691,-20.028686 h 8.131211 l 0.615446,-1.26768 C 80.988124,50.409263 87.908444,46.076764 95.495585,46.076764 h 28.372985 c 20.35426,0 36.85519,16.500924 36.85519,36.855725 z"
     id="path16"
     inkscape:connector-curvature="0" /><path
     style="fill:#e5ac51;stroke-width:0.54081887"
     d="m 68.92732,58.501537 h 8.131211 l 0.615446,-1.26768 C 80.988124,50.409805 87.908444,46.076764 95.495585,46.076764 h 9.192845 c -7.586615,0 -14.506935,4.333041 -17.821064,11.157634 l -0.615454,1.26768 H 78.12069 c -11.061356,0 -20.028672,8.967317 -20.028672,20.028686 V 133.207 H 48.89917 V 78.530764 C 48.898629,67.468855 57.865944,58.501537 68.92732,58.501537 Z"
     id="path18"
     inkscape:connector-curvature="0" /><path
     style="fill:#ffccaa;stroke-width:0.54081887"
     d="m 41.381797,131.31522 v 4.79328 c 0,5.59531 4.535843,10.13116 10.131155,10.13116 h 9.978107 c 0.59274,11.45021 5.620184,21.73442 13.404737,29.15122 7.784543,7.41191 18.317542,11.96128 29.915394,11.96128 23.19627,0 42.14008,-18.20234 43.32014,-41.1125 h 9.97811 c 5.59531,0 10.13116,-4.53585 10.13116,-10.13116 v -4.79328 c 0,-5.5953 -4.53585,-10.13115 -10.13116,-10.13115 h -9.91592 v -18.11203 h -36.41983 c -17.326213,0 -31.723349,-12.526443 -34.6243,-29.019797 C 76.897372,72.620695 75.189995,72.02958 74.112151,73.004676 66.32166,80.051547 61.428862,90.241657 61.428862,101.57614 v 19.60739 h -9.91591 c -5.595312,5.4e-4 -10.131155,4.53639 -10.131155,10.13169 z"
     id="path20"
     inkscape:connector-curvature="0" /><path
     style="fill:#f7c097;fill-opacity:1;stroke-width:0.54081887"
     d="m 51.512952,121.18407 h 9.91591 v -19.60793 c 0,-11.334483 4.892798,-21.524593 12.683289,-28.570923 1.077844,-0.975095 2.785762,-0.383981 3.037239,1.047566 0.473219,2.688953 1.256322,5.26974 2.303338,7.710996 -3.480162,5.789467 -5.488218,12.564305 -5.488218,19.812901 v 19.60793 l 0.06223,25.05559 c 0.592739,11.45021 5.619651,21.73388 13.404736,29.15068 6.35571,6.05122 14.543704,10.19174 23.647304,11.50917 -2.04645,0.29637 -4.13889,0.45265 -6.26754,0.45265 -11.598402,0 -22.130859,-4.54937 -29.915403,-11.96128 -7.784553,-7.41679 -12.811997,-17.70047 -13.404736,-29.15069 h -9.978108 c -5.595312,0 -10.131154,-4.53584 -10.131154,-10.13115 v -4.79328 c 0,-5.59584 4.535842,-10.13223 10.131154,-10.13223 z"
     id="path22"
     inkscape:connector-curvature="0" /><g
     id="g40"
     transform="matrix(0.58927702,0,0,0.58927702,-23.586892,20.188426)" /><g
     id="g42"
     transform="matrix(0.58927702,0,0,0.58927702,-23.586892,20.188426)" /><g
     id="g44"
     transform="matrix(0.58927702,0,0,0.58927702,-23.586892,20.188426)" /><g
     id="g46"
     transform="matrix(0.58927702,0,0,0.58927702,-23.586892,20.188426)" /><g
     id="g48"
     transform="matrix(0.58927702,0,0,0.58927702,-23.586892,20.188426)" /><g
     id="g50"
     transform="matrix(0.58927702,0,0,0.58927702,-23.586892,20.188426)" /><g
     id="g52"
     transform="matrix(0.58927702,0,0,0.58927702,-23.586892,20.188426)" /><g
     id="g54"
     transform="matrix(0.58927702,0,0,0.58927702,-23.586892,20.188426)" /><g
     id="g56"
     transform="matrix(0.58927702,0,0,0.58927702,-23.586892,20.188426)" /><g
     id="g58"
     transform="matrix(0.58927702,0,0,0.58927702,-23.586892,20.188426)" /><g
     id="g60"
     transform="matrix(0.58927702,0,0,0.58927702,-23.586892,20.188426)" /><g
     id="g62"
     transform="matrix(0.58927702,0,0,0.58927702,-23.586892,20.188426)" /><g
     id="g64"
     transform="matrix(0.58927702,0,0,0.58927702,-23.586892,20.188426)" /><g
     id="g66"
     transform="matrix(0.58927702,0,0,0.58927702,-23.586892,20.188426)" /><g
     id="g68"
     transform="matrix(0.58927702,0,0,0.58927702,-23.586892,20.188426)" /></svg>