<?xml version="1.0" encoding="UTF-8" standalone="no"?>
<!-- Generator: Adobe Illustrator 19.0.0, SVG Export Plug-In . SVG Version: 6.00 Build 0)  -->

<svg
   xmlns:dc="http://purl.org/dc/elements/1.1/"
   xmlns:cc="http://creativecommons.org/ns#"
   xmlns:rdf="http://www.w3.org/1999/02/22-rdf-syntax-ns#"
   xmlns:svg="http://www.w3.org/2000/svg"
   xmlns="http://www.w3.org/2000/svg"
   xmlns:sodipodi="http://sodipodi.sourceforge.net/DTD/sodipodi-0.dtd"
   xmlns:inkscape="http://www.inkscape.org/namespaces/inkscape"
   version="1.1"
   id="Capa_1"
   x="0px"
   y="0px"
   viewBox="0 0 250 250"
   xml:space="preserve"
   sodipodi:docname="welcome.svg"
   inkscape:version="0.92.0 r15299"
   width="250"
   height="250"><metadata
     id="metadata75"><rdf:RDF><cc:Work
         rdf:about=""><dc:format>image/svg+xml</dc:format><dc:type
           rdf:resource="http://purl.org/dc/dcmitype/StillImage" /><dc:title /></cc:Work></rdf:RDF></metadata><defs
     id="defs73" /><sodipodi:namedview
     pagecolor="#ffffff"
     bordercolor="#666666"
     borderopacity="1"
     objecttolerance="10"
     gridtolerance="10"
     guidetolerance="10"
     inkscape:pageopacity="0"
     inkscape:pageshadow="2"
     inkscape:window-width="1920"
     inkscape:window-height="1017"
     id="namedview71"
     showgrid="false"
     inkscape:zoom="1.84375"
     inkscape:cx="57.618317"
     inkscape:cy="66.459728"
     inkscape:window-x="-8"
     inkscape:window-y="-8"
     inkscape:window-maximized="1"
     inkscape:current-layer="Capa_1" /><path
     style="fill:#ff5a59;stroke-width:0.47996318"
     d="M 51.623145,250 H 195.97015 l -2.43293,-17.55465 -9.94388,-71.76218 -1.13127,-8.17857 C 180.54029,138.63222 168.67944,128.30006 154.6746,128.30006 H 92.91822 c -14.00485,0 -25.8657,10.33216 -27.78747,24.20454 l -1.13127,8.17857 -9.943882,71.76218 z"
     id="path2"
     inkscape:connector-curvature="0" /><path
     style="fill:#9178b7;fill-opacity:1;stroke-width:0.47996318"
     d="m 40.22114,218.09973 c 2.347499,6.82027 7.341036,11.86085 13.834458,14.34562 2.944094,1.12647 6.200162,1.72738 9.660222,1.72738 H 78.64843 V 213.82086 H 63.71582 c -3.44086,0 -3.989937,-1.5906 -4.254877,-2.3571 -1.027121,-2.98201 -0.302856,-9.33385 4.827467,-18.19877 3.46438,-5.98706 9.92036,-14.79534 21.80041,-25.68139 V 250 h 75.41565 v -82.41592 c 11.88005,10.88605 18.33556,19.69385 21.80041,25.68139 5.13081,8.86492 5.85459,15.21676 4.82747,18.19877 -0.26494,0.7665 -0.81402,2.3571 -4.25487,2.3571 h -14.93262 v 20.35187 h 14.93262 c 3.46005,0 6.71612,-0.60091 9.66022,-1.72738 6.4939,-2.48477 11.48695,-7.52583 13.83445,-14.34562 2.3523,-6.82508 3.1428,-18.44019 -6.45118,-35.02436 -4.24095,-7.33143 -10.03411,-14.81454 -17.32763,-22.39172 -4.83227,-5.03097 -10.33217,-10.10034 -16.4661,-15.19323 -3.56852,-2.95801 -8.0605,-4.58605 -12.69406,-4.58605 H 93.15964 c -4.63357,0 -9.12506,1.62804 -12.69407,4.58605 -6.13393,5.09241 -11.63383,10.16178 -16.46609,15.19323 -7.293525,7.57766 -13.086681,15.06029 -17.327635,22.39172 -9.593504,16.58369 -8.803005,28.19832 -6.450705,35.02388 z"
     id="path4"
     inkscape:connector-curvature="0" /><g
     id="g10"
     transform="matrix(-0.47996317,0,0,0.47996317,246.66722,4.2588548)"><path
       style="fill:#914cb7;fill-opacity:1"
       d="m 416.688,372.563 c -8.836,-15.275 -20.906,-30.866 -36.102,-46.653 -10.068,-10.482 -21.527,-21.044 -34.307,-31.654 -7.435,-6.163 -16.794,-9.556 -26.448,-9.556 h -16.215 c 9.005,0 17.734,3.392 24.669,9.556 11.921,10.61 22.609,21.172 32,31.654 14.174,15.788 25.433,31.378 33.674,46.653 18.644,34.553 17.108,58.753 12.537,72.973 -4.562,14.21 -14.266,24.712 -26.886,29.889 -5.721,2.347 -12.049,3.599 -18.773,3.599 h 20.34 c 7.209,0 13.993,-1.253 20.127,-3.599 13.53,-5.177 23.933,-15.68 28.824,-29.889 4.902,-14.221 6.549,-38.42 -13.44,-72.973 z"
       id="path6"
       inkscape:connector-curvature="0" /><path
       style="fill:#914cb7;fill-opacity:1"
       d="m 331.818,479.024 v -42.403 h 2.746 v -96.334 c -4.96,-5.701 -10.658,-11.784 -17.205,-18.216 V 512 h 17.205 v -32.976 z"
       id="path8"
       inkscape:connector-curvature="0" /></g><path
     style="fill:#ff5a59;stroke-width:0.47996318"
     d="m 164.54024,140.90581 -7.81044,9.76053 c -1.66547,2.0816 -4.1872,3.29303 -6.85291,3.29303 H 123.79665 97.71641 c -2.66572,0 -5.18744,-1.21191 -6.85292,-3.29303 l -7.81044,-9.76053 v -4.49629 h 81.48719 z"
     id="path12"
     inkscape:connector-curvature="0" /><path
     style="fill:#f7c097;stroke-width:0.47996318;fill-opacity:1"
     d="m 138.56127,113.46296 v 28.84914 c 0,8.1541 -6.61053,14.76463 -14.76462,14.76463 v 0 c -8.1541,0 -14.76463,-6.61053 -14.76463,-14.76463 v -28.84914 z"
     id="path14"
     inkscape:connector-curvature="0" /><path
     style="fill:#f9dc6a;stroke-width:0.47996318"
     d="M 173.41764,36.967385 V 81.584282 H 74.17565 V 33.060965 c 0,-9.816687 7.95827,-17.774956 17.77496,-17.774956 h 7.21625 l 0.54619,-1.125034 c 2.94122,-6.0571352 9.08283,-9.9021202 15.81623,-9.9021202 h 25.18031 c 18.06389,0 32.70805,14.6441562 32.70805,32.7085302 z"
     id="path16"
     inkscape:connector-curvature="0" /><path
     style="fill:#e5ac51;stroke-width:0.47996318"
     d="m 91.95061,15.285529 h 7.21625 l 0.54619,-1.125034 c 2.94122,-6.0561752 9.08283,-9.9016402 15.81623,-9.9016402 h 8.15842 c -6.73293,0 -12.87454,3.845465 -15.81575,9.9021202 l -0.5462,1.125034 h -7.21625 c -9.81668,0 -17.77495,7.958269 -17.77495,17.774956 V 81.584762 H 74.17613 V 33.060965 c -4.8e-4,-9.817167 7.95779,-17.775436 17.77448,-17.775436 z"
     id="path18"
     inkscape:connector-curvature="0" /><path
     style="fill:#ffccaa;stroke-width:0.47996318"
     d="m 67.50465,79.905851 v 4.253913 c 0,4.965699 4.02545,8.99115 8.99115,8.99115 h 8.85532 c 0.52604,10.161776 4.98777,19.288756 11.89636,25.870976 6.90859,6.57789 16.25636,10.61534 26.54917,10.61534 20.5861,0 37.39825,-16.15412 38.44553,-36.486316 h 8.85532 c 4.9657,0 8.99115,-4.025451 8.99115,-8.99115 v -4.253913 c 0,-4.965699 -4.02545,-8.99115 -8.99115,-8.99115 h -8.80013 V 54.840734 h -32.32168 c -15.37658,0 -28.15368,-11.116907 -30.7282,-25.754344 -0.22366,-1.270463 -1.73891,-1.795062 -2.69547,-0.929689 -6.91387,6.25392 -11.2561,15.297387 -11.2561,25.356455 V 70.914221 H 76.4958 c -4.9657,4.8e-4 -8.99115,4.025931 -8.99115,8.99163 z"
     id="path20"
     inkscape:connector-curvature="0" /><path
     style="fill:#f7c097;stroke-width:0.47996318;fill-opacity:1"
     d="m 76.4958,70.914701 h 8.80012 V 53.513156 c 0,-10.059068 4.34223,-19.102535 11.2561,-25.355975 0.95656,-0.865373 2.47229,-0.340774 2.69547,0.929689 0.41997,2.386377 1.11496,4.676761 2.04416,6.843315 -3.08856,5.138006 -4.87066,11.150504 -4.87066,17.583451 v 17.401545 l 0.0552,22.236213 c 0.52604,10.161776 4.9873,19.288276 11.89637,25.870496 5.64053,5.37031 12.90717,9.04491 20.98639,10.2141 -1.81618,0.26302 -3.67316,0.40172 -5.56229,0.40172 -10.29329,0 -19.64058,-4.03745 -26.54917,-10.61534 C 90.3389,112.44015 85.87717,103.31365 85.35113,93.151874 h -8.85532 c -4.9657,0 -8.99115,-4.025451 -8.99115,-8.99115 v -4.253913 c 0,-4.966179 4.02545,-8.99211 8.99115,-8.99211 z"
     id="path22"
     inkscape:connector-curvature="0" /><g
     id="g38"
     transform="matrix(-0.47996317,0,0,0.47996317,246.66722,4.2588548)"><path
       style="fill:#ffccaa"
       d="m 339.53,427.621 h -9.661 c -7.246,0 -13.12,5.874 -13.12,13.12 v 33.966 c 0,7.246 5.874,13.119 13.12,13.119 h 9.661 c 5.82,0 10.538,-4.718 10.538,-10.538 v -39.129 c 0,-5.82 -4.718,-10.538 -10.538,-10.538 z"
       id="path34"
       inkscape:connector-curvature="0" /><path
       style="fill:#ffccaa"
       d="m 172.47,427.621 h 9.661 c 7.246,0 13.12,5.874 13.12,13.12 v 33.966 c 0,7.246 -5.874,13.119 -13.12,13.119 h -9.661 c -5.82,0 -10.538,-4.718 -10.538,-10.538 v -39.129 c 0,-5.82 4.718,-10.538 10.538,-10.538 z"
       id="path36"
       inkscape:connector-curvature="0" /></g><g
     id="g40"
     transform="matrix(0.47996317,0,0,0.47996317,0.926051,4.2588548)" /><g
     id="g42"
     transform="matrix(0.47996317,0,0,0.47996317,0.926051,4.2588548)" /><g
     id="g44"
     transform="matrix(0.47996317,0,0,0.47996317,0.926051,4.2588548)" /><g
     id="g46"
     transform="matrix(0.47996317,0,0,0.47996317,0.926051,4.2588548)" /><g
     id="g48"
     transform="matrix(0.47996317,0,0,0.47996317,0.926051,4.2588548)" /><g
     id="g50"
     transform="matrix(0.47996317,0,0,0.47996317,0.926051,4.2588548)" /><g
     id="g52"
     transform="matrix(0.47996317,0,0,0.47996317,0.926051,4.2588548)" /><g
     id="g54"
     transform="matrix(0.47996317,0,0,0.47996317,0.926051,4.2588548)" /><g
     id="g56"
     transform="matrix(0.47996317,0,0,0.47996317,0.926051,4.2588548)" /><g
     id="g58"
     transform="matrix(0.47996317,0,0,0.47996317,0.926051,4.2588548)" /><g
     id="g60"
     transform="matrix(0.47996317,0,0,0.47996317,0.926051,4.2588548)" /><g
     id="g62"
     transform="matrix(0.47996317,0,0,0.47996317,0.926051,4.2588548)" /><g
     id="g64"
     transform="matrix(0.47996317,0,0,0.47996317,0.926051,4.2588548)" /><g
     id="g66"
     transform="matrix(0.47996317,0,0,0.47996317,0.926051,4.2588548)" /><g
     id="g68"
     transform="matrix(0.47996317,0,0,0.47996317,0.926051,4.2588548)" /></svg>