<svg width="16px" height="16px" viewBox="0 0 16 16" xmlns="http://www.w3.org/2000/svg"> <path d="M14.6640807,6.86601146 L12.8884253,6.69101112 C12.762753,6.22728755 12.5896937,5.82166957 12.3693296,5.44722353 L13.5160762,4.08933025 C13.5681389,4.02564653 13.5996664,3.94345106 13.5996664,3.85390011 C13.5996664,3.75084131 13.5579123,3.65754425 13.4904004,3.59000506 L12.4100446,2.50965139 C12.3424779,2.44213954 12.249208,2.40038555 12.146149,2.40038555 C12.0565705,2.40038555 11.9743749,2.4319403 11.9100348,2.48452243 L10.5293614,3.61800511 C10.1783757,3.41038361 9.77272958,3.23735203 9.34414197,3.11988305 L9.13400443,1.33600066 C9.11442623,1.14667216 8.9558592,1.00024609 8.76303032,1 L7.23699702,1 C7.0441408,1.00024609 6.88560112,1.14667216 6.86613229,1.33438737 L6.69099489,3.11397679 C6.22729776,3.23948484 5.82167899,3.41251643 5.44731425,3.63304421 L4.08933629,2.48632712 C4.02565244,2.43426452 3.94345681,2.40273711 3.85390568,2.40273711 C3.75084668,2.40273711 3.65754944,2.4444911 3.59001012,2.51200295 L2.51200591,3.59000506 C2.44449392,3.6575716 2.40273985,3.75086865 2.40273985,3.85390011 C2.40273985,3.94345106 2.43429467,4.02567388 2.4868769,4.09001385 L3.62033445,5.47068451 C3.41260317,5.82169692 3.23957125,6.22734224 3.12218407,6.65595636 L1.33600131,6.86598411 C1.14667245,6.88556228 1.00024609,7.04415634 1,7.23695749 L1,8.76298782 C1.00024609,8.95584366 1.14667245,9.11438304 1.33438802,9.13385182 L3.11398091,9.30898888 C3.23943453,9.77265776 3.41246645,10.1783304 3.633022,10.5526398 L2.48630268,11.9106424 C2.43314622,11.9744082 2.40082578,12.0571778 2.40082578,12.1475218 C2.40082578,12.2500337 2.44238845,12.3428386 2.50959965,12.4099949 L3.58760386,13.487997 C3.65517053,13.5555089 3.74844042,13.5972629 3.85149942,13.5972629 C3.94105055,13.5972629 4.02327353,13.5657081 4.08761362,13.513126 L5.46828699,12.3796707 C5.81924539,12.5878664 6.22480947,12.7616363 6.6533424,12.8800076 L6.86361665,14.6639993 C6.8832222,14.8534919 7.04203532,15 7.23508295,15 C7.2357392,15 7.23639545,15 7.23705171,15 L8.76297564,15 C8.95583186,14.9997539 9.11437154,14.8533278 9.13384037,14.6656126 L9.30897777,12.8883474 C9.77270224,12.7620738 10.178321,12.5882765 10.5525217,12.3669831 L11.9106637,13.5136729 C11.9743476,13.5657355 12.0565158,13.5972629 12.1460943,13.5972629 C12.2491533,13.5972629 12.3424506,13.5555089 12.4099899,13.487997 L13.4879941,12.4099949 C13.5552053,12.3428386 13.596768,12.250061 13.596768,12.1475218 C13.596768,12.0572052 13.5645022,11.9743808 13.5108262,11.9100408 L12.377314,10.5293155 C12.5848812,10.1783304 12.7579131,9.7726851 12.875437,9.34412567 L14.6593229,9.13398854 C14.8506752,9.11667992 14.9995078,8.95729289 15,8.76304251 L15,7.23698484 C14.9997539,7.04412899 14.8533276,6.88558962 14.665612,6.86612083 L14.6640807,6.86601146 Z M8.00005469,10.0650177 C6.85956976,10.0650177 5.93504662,9.14046902 5.93504662,8.00001367 C5.93504662,6.85955832 6.85956976,5.93500964 8.00005469,5.93500964 C9.14053961,5.93500964 10.0650628,6.85953098 10.0650628,8.00001367 C10.0650628,9.14049637 9.14051227,10.0650177 8.00005469,10.0650177 Z" id="Shape" fill="#888888" fill-rule="nonzero"></path></svg>
